<svg width="749" height="399" viewBox="0 0 749 399" fill="none" xmlns="http://www.w3.org/2000/svg">
<rect width="749" height="399" fill="#E5E5E5"/>
<circle cx="425.5" cy="35.5" r="35.5" fill="white"/>
<path d="M411.809 31.8555C412.77 30.6758 414.02 30.0859 415.559 30.0859C418.238 30.0859 419.59 31.5977 419.613 34.6211V43H417.445V34.6094C417.438 33.6953 417.227 33.0195 416.812 32.582C416.406 32.1445 415.77 31.9258 414.902 31.9258C414.199 31.9258 413.582 32.1133 413.051 32.4883C412.52 32.8633 412.105 33.3555 411.809 33.9648V43H409.641V25H411.809V31.8555ZM422.285 36.543C422.285 35.3008 422.527 34.1836 423.012 33.1914C423.504 32.1992 424.184 31.4336 425.051 30.8945C425.926 30.3555 426.922 30.0859 428.039 30.0859C429.766 30.0859 431.16 30.6836 432.223 31.8789C433.293 33.0742 433.828 34.6641 433.828 36.6484V36.8008C433.828 38.0352 433.59 39.1445 433.113 40.1289C432.645 41.1055 431.969 41.8672 431.086 42.4141C430.211 42.9609 429.203 43.2344 428.062 43.2344C426.344 43.2344 424.949 42.6367 423.879 41.4414C422.816 40.2461 422.285 38.6641 422.285 36.6953V36.543ZM424.465 36.8008C424.465 38.207 424.789 39.3359 425.438 40.1875C426.094 41.0391 426.969 41.4648 428.062 41.4648C429.164 41.4648 430.039 41.0352 430.688 40.1758C431.336 39.3086 431.66 38.0977 431.66 36.543C431.66 35.1523 431.328 34.0273 430.664 33.168C430.008 32.3008 429.133 31.8672 428.039 31.8672C426.969 31.8672 426.105 32.293 425.449 33.1445C424.793 33.9961 424.465 35.2148 424.465 36.8008ZM439.488 27.25V30.3203H441.855V31.9961H439.488V39.8594C439.488 40.3672 439.594 40.75 439.805 41.0078C440.016 41.2578 440.375 41.3828 440.883 41.3828C441.133 41.3828 441.477 41.3359 441.914 41.2422V43C441.344 43.1562 440.789 43.2344 440.25 43.2344C439.281 43.2344 438.551 42.9414 438.059 42.3555C437.566 41.7695 437.32 40.9375 437.32 39.8594V31.9961H435.012V30.3203H437.32V27.25H439.488Z" fill="black"/>
<circle cx="183.5" cy="118.5" r="35.5" fill="white"/>
<path d="M167.113 119.555C167.113 117.609 167.574 116.047 168.496 114.867C169.418 113.68 170.625 113.086 172.117 113.086C173.602 113.086 174.777 113.594 175.645 114.609V108H177.812V126H175.82L175.715 124.641C174.848 125.703 173.641 126.234 172.094 126.234C170.625 126.234 169.426 125.633 168.496 124.43C167.574 123.227 167.113 121.656 167.113 119.719V119.555ZM169.281 119.801C169.281 121.238 169.578 122.363 170.172 123.176C170.766 123.988 171.586 124.395 172.633 124.395C174.008 124.395 175.012 123.777 175.645 122.543V116.719C174.996 115.523 174 114.926 172.656 114.926C171.594 114.926 170.766 115.336 170.172 116.156C169.578 116.977 169.281 118.191 169.281 119.801ZM180.613 119.543C180.613 118.301 180.855 117.184 181.34 116.191C181.832 115.199 182.512 114.434 183.379 113.895C184.254 113.355 185.25 113.086 186.367 113.086C188.094 113.086 189.488 113.684 190.551 114.879C191.621 116.074 192.156 117.664 192.156 119.648V119.801C192.156 121.035 191.918 122.145 191.441 123.129C190.973 124.105 190.297 124.867 189.414 125.414C188.539 125.961 187.531 126.234 186.391 126.234C184.672 126.234 183.277 125.637 182.207 124.441C181.145 123.246 180.613 121.664 180.613 119.695V119.543ZM182.793 119.801C182.793 121.207 183.117 122.336 183.766 123.188C184.422 124.039 185.297 124.465 186.391 124.465C187.492 124.465 188.367 124.035 189.016 123.176C189.664 122.309 189.988 121.098 189.988 119.543C189.988 118.152 189.656 117.027 188.992 116.168C188.336 115.301 187.461 114.867 186.367 114.867C185.297 114.867 184.434 115.293 183.777 116.145C183.121 116.996 182.793 118.215 182.793 119.801ZM197.816 110.25V113.32H200.184V114.996H197.816V122.859C197.816 123.367 197.922 123.75 198.133 124.008C198.344 124.258 198.703 124.383 199.211 124.383C199.461 124.383 199.805 124.336 200.242 124.242V126C199.672 126.156 199.117 126.234 198.578 126.234C197.609 126.234 196.879 125.941 196.387 125.355C195.895 124.77 195.648 123.938 195.648 122.859V114.996H193.34V113.32H195.648V110.25H197.816Z" fill="black"/>
<circle cx="147.5" cy="322.5" r="35.5" fill="white"/>
<path d="M131.113 323.555C131.113 321.609 131.574 320.047 132.496 318.867C133.418 317.68 134.625 317.086 136.117 317.086C137.602 317.086 138.777 317.594 139.645 318.609V312H141.812V330H139.82L139.715 328.641C138.848 329.703 137.641 330.234 136.094 330.234C134.625 330.234 133.426 329.633 132.496 328.43C131.574 327.227 131.113 325.656 131.113 323.719V323.555ZM133.281 323.801C133.281 325.238 133.578 326.363 134.172 327.176C134.766 327.988 135.586 328.395 136.633 328.395C138.008 328.395 139.012 327.777 139.645 326.543V320.719C138.996 319.523 138 318.926 136.656 318.926C135.594 318.926 134.766 319.336 134.172 320.156C133.578 320.977 133.281 322.191 133.281 323.801ZM144.613 323.543C144.613 322.301 144.855 321.184 145.34 320.191C145.832 319.199 146.512 318.434 147.379 317.895C148.254 317.355 149.25 317.086 150.367 317.086C152.094 317.086 153.488 317.684 154.551 318.879C155.621 320.074 156.156 321.664 156.156 323.648V323.801C156.156 325.035 155.918 326.145 155.441 327.129C154.973 328.105 154.297 328.867 153.414 329.414C152.539 329.961 151.531 330.234 150.391 330.234C148.672 330.234 147.277 329.637 146.207 328.441C145.145 327.246 144.613 325.664 144.613 323.695V323.543ZM146.793 323.801C146.793 325.207 147.117 326.336 147.766 327.188C148.422 328.039 149.297 328.465 150.391 328.465C151.492 328.465 152.367 328.035 153.016 327.176C153.664 326.309 153.988 325.098 153.988 323.543C153.988 322.152 153.656 321.027 152.992 320.168C152.336 319.301 151.461 318.867 150.367 318.867C149.297 318.867 148.434 319.293 147.777 320.145C147.121 320.996 146.793 322.215 146.793 323.801ZM160.727 328.23H168.145V330H158.078V328.406L165.074 319.113H158.184V317.32H167.793V318.855L160.727 328.23Z" fill="black"/>
<circle cx="35.5" cy="243.5" r="35.5" fill="white"/>
<path d="M19.1133 244.555C19.1133 242.609 19.5742 241.047 20.4961 239.867C21.418 238.68 22.625 238.086 24.1172 238.086C25.6016 238.086 26.7773 238.594 27.6445 239.609V233H29.8125V251H27.8203L27.7148 249.641C26.8477 250.703 25.6406 251.234 24.0938 251.234C22.625 251.234 21.4258 250.633 20.4961 249.43C19.5742 248.227 19.1133 246.656 19.1133 244.719V244.555ZM21.2812 244.801C21.2812 246.238 21.5781 247.363 22.1719 248.176C22.7656 248.988 23.5859 249.395 24.6328 249.395C26.0078 249.395 27.0117 248.777 27.6445 247.543V241.719C26.9961 240.523 26 239.926 24.6562 239.926C23.5938 239.926 22.7656 240.336 22.1719 241.156C21.5781 241.977 21.2812 243.191 21.2812 244.801ZM32.6133 244.543C32.6133 243.301 32.8555 242.184 33.3398 241.191C33.832 240.199 34.5117 239.434 35.3789 238.895C36.2539 238.355 37.25 238.086 38.3672 238.086C40.0938 238.086 41.4883 238.684 42.5508 239.879C43.6211 241.074 44.1562 242.664 44.1562 244.648V244.801C44.1562 246.035 43.918 247.145 43.4414 248.129C42.9727 249.105 42.2969 249.867 41.4141 250.414C40.5391 250.961 39.5312 251.234 38.3906 251.234C36.6719 251.234 35.2773 250.637 34.207 249.441C33.1445 248.246 32.6133 246.664 32.6133 244.695V244.543ZM34.793 244.801C34.793 246.207 35.1172 247.336 35.7656 248.188C36.4219 249.039 37.2969 249.465 38.3906 249.465C39.4922 249.465 40.3672 249.035 41.0156 248.176C41.6641 247.309 41.9883 246.098 41.9883 244.543C41.9883 243.152 41.6562 242.027 40.9922 241.168C40.3359 240.301 39.4609 239.867 38.3672 239.867C37.2969 239.867 36.4336 240.293 35.7773 241.145C35.1211 241.996 34.793 243.215 34.793 244.801ZM48.9141 238.32L48.9727 239.727C49.9023 238.633 51.1562 238.086 52.7344 238.086C54.5078 238.086 55.7148 238.766 56.3555 240.125C56.7773 239.516 57.3242 239.023 57.9961 238.648C58.6758 238.273 59.4766 238.086 60.3984 238.086C63.1797 238.086 64.5938 239.559 64.6406 242.504V251H62.4727V242.633C62.4727 241.727 62.2656 241.051 61.8516 240.605C61.4375 240.152 60.7422 239.926 59.7656 239.926C58.9609 239.926 58.293 240.168 57.7617 240.652C57.2305 241.129 56.9219 241.773 56.8359 242.586V251H54.6562V242.691C54.6562 240.848 53.7539 239.926 51.9492 239.926C50.5273 239.926 49.5547 240.531 49.0312 241.742V251H46.8633V238.32H48.9141Z" fill="black"/>
<circle cx="372.5" cy="180.5" r="35.5" fill="white"/>
<path d="M358.809 176.855C359.77 175.676 361.02 175.086 362.559 175.086C365.238 175.086 366.59 176.598 366.613 179.621V188H364.445V179.609C364.438 178.695 364.227 178.02 363.812 177.582C363.406 177.145 362.77 176.926 361.902 176.926C361.199 176.926 360.582 177.113 360.051 177.488C359.52 177.863 359.105 178.355 358.809 178.965V188H356.641V170H358.809V176.855ZM377.688 188C377.562 187.75 377.461 187.305 377.383 186.664C376.375 187.711 375.172 188.234 373.773 188.234C372.523 188.234 371.496 187.883 370.691 187.18C369.895 186.469 369.496 185.57 369.496 184.484C369.496 183.164 369.996 182.141 370.996 181.414C372.004 180.68 373.418 180.312 375.238 180.312H377.348V179.316C377.348 178.559 377.121 177.957 376.668 177.512C376.215 177.059 375.547 176.832 374.664 176.832C373.891 176.832 373.242 177.027 372.719 177.418C372.195 177.809 371.934 178.281 371.934 178.836H369.754C369.754 178.203 369.977 177.594 370.422 177.008C370.875 176.414 371.484 175.945 372.25 175.602C373.023 175.258 373.871 175.086 374.793 175.086C376.254 175.086 377.398 175.453 378.227 176.188C379.055 176.914 379.484 177.918 379.516 179.199V185.035C379.516 186.199 379.664 187.125 379.961 187.812V188H377.688ZM374.09 186.348C374.77 186.348 375.414 186.172 376.023 185.82C376.633 185.469 377.074 185.012 377.348 184.449V181.848H375.648C372.992 181.848 371.664 182.625 371.664 184.18C371.664 184.859 371.891 185.391 372.344 185.773C372.797 186.156 373.379 186.348 374.09 186.348ZM385.855 172.25V175.32H388.223V176.996H385.855V184.859C385.855 185.367 385.961 185.75 386.172 186.008C386.383 186.258 386.742 186.383 387.25 186.383C387.5 186.383 387.844 186.336 388.281 186.242V188C387.711 188.156 387.156 188.234 386.617 188.234C385.648 188.234 384.918 187.941 384.426 187.355C383.934 186.77 383.688 185.938 383.688 184.859V176.996H381.379V175.32H383.688V172.25H385.855Z" fill="black"/>
<circle cx="401.5" cy="363.5" r="35.5" fill="white"/>
<path d="M387.809 359.855C388.77 358.676 390.02 358.086 391.559 358.086C394.238 358.086 395.59 359.598 395.613 362.621V371H393.445V362.609C393.438 361.695 393.227 361.02 392.812 360.582C392.406 360.145 391.77 359.926 390.902 359.926C390.199 359.926 389.582 360.113 389.051 360.488C388.52 360.863 388.105 361.355 387.809 361.965V371H385.641V353H387.809V359.855ZM406.688 371C406.562 370.75 406.461 370.305 406.383 369.664C405.375 370.711 404.172 371.234 402.773 371.234C401.523 371.234 400.496 370.883 399.691 370.18C398.895 369.469 398.496 368.57 398.496 367.484C398.496 366.164 398.996 365.141 399.996 364.414C401.004 363.68 402.418 363.312 404.238 363.312H406.348V362.316C406.348 361.559 406.121 360.957 405.668 360.512C405.215 360.059 404.547 359.832 403.664 359.832C402.891 359.832 402.242 360.027 401.719 360.418C401.195 360.809 400.934 361.281 400.934 361.836H398.754C398.754 361.203 398.977 360.594 399.422 360.008C399.875 359.414 400.484 358.945 401.25 358.602C402.023 358.258 402.871 358.086 403.793 358.086C405.254 358.086 406.398 358.453 407.227 359.188C408.055 359.914 408.484 360.918 408.516 362.199V368.035C408.516 369.199 408.664 370.125 408.961 370.812V371H406.688ZM403.09 369.348C403.77 369.348 404.414 369.172 405.023 368.82C405.633 368.469 406.074 368.012 406.348 367.449V364.848H404.648C401.992 364.848 400.664 365.625 400.664 367.18C400.664 367.859 400.891 368.391 401.344 368.773C401.797 369.156 402.379 369.348 403.09 369.348ZM413.953 358.32L414.012 359.727C414.941 358.633 416.195 358.086 417.773 358.086C419.547 358.086 420.754 358.766 421.395 360.125C421.816 359.516 422.363 359.023 423.035 358.648C423.715 358.273 424.516 358.086 425.438 358.086C428.219 358.086 429.633 359.559 429.68 362.504V371H427.512V362.633C427.512 361.727 427.305 361.051 426.891 360.605C426.477 360.152 425.781 359.926 424.805 359.926C424 359.926 423.332 360.168 422.801 360.652C422.27 361.129 421.961 361.773 421.875 362.586V371H419.695V362.691C419.695 360.848 418.793 359.926 416.988 359.926C415.566 359.926 414.594 360.531 414.07 361.742V371H411.902V358.32H413.953Z" fill="black"/>
<circle cx="568.5" cy="172.5" r="35.5" fill="white"/>
<path d="M554.809 168.855C555.77 167.676 557.02 167.086 558.559 167.086C561.238 167.086 562.59 168.598 562.613 171.621V180H560.445V171.609C560.438 170.695 560.227 170.02 559.812 169.582C559.406 169.145 558.77 168.926 557.902 168.926C557.199 168.926 556.582 169.113 556.051 169.488C555.52 169.863 555.105 170.355 554.809 170.965V180H552.641V162H554.809V168.855ZM565.285 173.543C565.285 172.301 565.527 171.184 566.012 170.191C566.504 169.199 567.184 168.434 568.051 167.895C568.926 167.355 569.922 167.086 571.039 167.086C572.766 167.086 574.16 167.684 575.223 168.879C576.293 170.074 576.828 171.664 576.828 173.648V173.801C576.828 175.035 576.59 176.145 576.113 177.129C575.645 178.105 574.969 178.867 574.086 179.414C573.211 179.961 572.203 180.234 571.062 180.234C569.344 180.234 567.949 179.637 566.879 178.441C565.816 177.246 565.285 175.664 565.285 173.695V173.543ZM567.465 173.801C567.465 175.207 567.789 176.336 568.438 177.188C569.094 178.039 569.969 178.465 571.062 178.465C572.164 178.465 573.039 178.035 573.688 177.176C574.336 176.309 574.66 175.098 574.66 173.543C574.66 172.152 574.328 171.027 573.664 170.168C573.008 169.301 572.133 168.867 571.039 168.867C569.969 168.867 569.105 169.293 568.449 170.145C567.793 170.996 567.465 172.215 567.465 173.801ZM590.773 177.012L593.211 167.32H595.379L591.688 180H589.93L586.848 170.391L583.848 180H582.09L578.41 167.32H580.566L583.062 176.812L586.016 167.32H587.762L590.773 177.012Z" fill="black"/>
<circle cx="713.5" cy="347.5" r="35.5" fill="white"/>
<path d="M708.867 352.012L711.305 342.32H713.473L709.781 355H708.023L704.941 345.391L701.941 355H700.184L696.504 342.32H698.66L701.156 351.812L704.109 342.32H705.855L708.867 352.012ZM715.113 348.543C715.113 347.301 715.355 346.184 715.84 345.191C716.332 344.199 717.012 343.434 717.879 342.895C718.754 342.355 719.75 342.086 720.867 342.086C722.594 342.086 723.988 342.684 725.051 343.879C726.121 345.074 726.656 346.664 726.656 348.648V348.801C726.656 350.035 726.418 351.145 725.941 352.129C725.473 353.105 724.797 353.867 723.914 354.414C723.039 354.961 722.031 355.234 720.891 355.234C719.172 355.234 717.777 354.637 716.707 353.441C715.645 352.246 715.113 350.664 715.113 348.695V348.543ZM717.293 348.801C717.293 350.207 717.617 351.336 718.266 352.188C718.922 353.039 719.797 353.465 720.891 353.465C721.992 353.465 722.867 353.035 723.516 352.176C724.164 351.309 724.488 350.098 724.488 348.543C724.488 347.152 724.156 346.027 723.492 345.168C722.836 344.301 721.961 343.867 720.867 343.867C719.797 343.867 718.934 344.293 718.277 345.145C717.621 345.996 717.293 347.215 717.293 348.801ZM740.602 352.012L743.039 342.32H745.207L741.516 355H739.758L736.676 345.391L733.676 355H731.918L728.238 342.32H730.395L732.891 351.812L735.844 342.32H737.59L740.602 352.012Z" fill="black"/>
<path d="M166.607 287.309C166.777 287.526 167.092 287.564 167.309 287.393L170.848 284.614C171.065 284.444 171.103 284.129 170.933 283.912C170.762 283.695 170.448 283.657 170.23 283.828L167.084 286.298L164.614 283.152C164.444 282.935 164.129 282.897 163.912 283.067C163.695 283.238 163.657 283.552 163.828 283.77L166.607 287.309ZM182.504 153.94L166.504 286.94L167.496 287.06L183.496 154.06L182.504 153.94Z" fill="black"/>
<path d="M550.04 145.498C550.316 145.476 550.521 145.235 550.498 144.96L550.135 140.474C550.112 140.199 549.871 139.994 549.596 140.016C549.321 140.039 549.116 140.28 549.138 140.555L549.461 144.542L545.474 144.865C545.199 144.888 544.994 145.129 545.016 145.404C545.039 145.679 545.28 145.884 545.555 145.862L550.04 145.498ZM449.676 60.381L549.676 145.381L550.324 144.619L450.324 59.619L449.676 60.381Z" fill="black"/>
<path d="M210.55 101.782C210.43 102.03 210.533 102.329 210.782 102.45L214.83 104.415C215.078 104.536 215.377 104.432 215.498 104.184C215.619 103.935 215.515 103.636 215.267 103.515L211.668 101.769L213.415 98.1702C213.536 97.9218 213.432 97.6226 213.184 97.502C212.935 97.3814 212.636 97.4851 212.515 97.7335L210.55 101.782ZM389.836 39.5275L210.836 101.528L211.164 102.472L390.164 40.4725L389.836 39.5275Z" fill="black"/>
<path d="M385.53 154.17C385.623 154.429 385.91 154.564 386.17 154.47L390.403 152.944C390.663 152.85 390.797 152.563 390.703 152.304C390.61 152.044 390.323 151.909 390.063 152.003L386.301 153.36L384.944 149.597C384.85 149.337 384.563 149.203 384.304 149.297C384.044 149.39 383.909 149.677 384.003 149.937L385.53 154.17ZM424.547 70.7874L385.547 153.787L386.453 154.213L425.453 71.2126L424.547 70.7874Z" fill="black"/>
<path d="M62.5048 215.931C62.4667 216.204 62.6575 216.457 62.931 216.495L67.3879 217.116C67.6614 217.155 67.914 216.964 67.9521 216.69C67.9902 216.417 67.7994 216.164 67.5259 216.126L63.5642 215.574L64.1165 211.612C64.1546 211.339 63.9638 211.086 63.6903 211.048C63.4168 211.01 63.1642 211.201 63.1261 211.474L62.5048 215.931ZM156.699 144.601L62.6986 215.601L63.3014 216.399L157.301 145.399L156.699 144.601Z" fill="black"/>
<path d="M400.725 328.417C400.955 328.569 401.265 328.506 401.417 328.275L403.894 324.518C404.046 324.288 403.983 323.978 403.752 323.826C403.522 323.674 403.211 323.737 403.059 323.968L400.858 327.307L397.518 325.106C397.288 324.954 396.978 325.017 396.826 325.248C396.674 325.478 396.737 325.789 396.968 325.941L400.725 328.417ZM377.51 216.101L400.51 328.101L401.49 327.899L378.49 215.899L377.51 216.101Z" fill="black"/>
<path d="M700.007 312.5C700.283 312.496 700.504 312.269 700.5 311.993L700.439 307.494C700.435 307.218 700.208 306.997 699.932 307C699.656 307.004 699.435 307.231 699.439 307.507L699.493 311.507L695.494 311.561C695.218 311.565 694.997 311.792 695 312.068C695.004 312.344 695.231 312.565 695.507 312.561L700.007 312.5ZM587.651 203.358L699.651 312.358L700.349 311.642L588.349 202.642L587.651 203.358Z" fill="black"/>
</svg>
