<svg width="225" height="364" viewBox="0 0 225 364" fill="none" xmlns="http://www.w3.org/2000/svg">
<rect width="225" height="364" fill="#E5E5E5"/>
<circle cx="189.5" cy="35.5" r="35.5" fill="white"/>
<path d="M190.543 43H188.363V28.5508L183.992 30.1562V28.1875L190.203 25.8555H190.543V43Z" fill="black"/>
<circle cx="35.5" cy="172.5" r="35.5" fill="white"/>
<path d="M40.1172 172.723C40.1172 175.262 39.6836 177.148 38.8164 178.383C37.9492 179.617 36.5938 180.234 34.75 180.234C32.9297 180.234 31.582 179.633 30.707 178.43C29.832 177.219 29.3789 175.414 29.3477 173.016V170.121C29.3477 167.613 29.7812 165.75 30.6484 164.531C31.5156 163.312 32.875 162.703 34.7266 162.703C36.5625 162.703 37.9141 163.293 38.7812 164.473C39.6484 165.645 40.0938 167.457 40.1172 169.91V172.723ZM37.9492 169.758C37.9492 167.922 37.6914 166.586 37.1758 165.75C36.6602 164.906 35.8438 164.484 34.7266 164.484C33.6172 164.484 32.8086 164.902 32.3008 165.738C31.793 166.574 31.5312 167.859 31.5156 169.594V173.062C31.5156 174.906 31.7812 176.27 32.3125 177.152C32.8516 178.027 33.6641 178.465 34.75 178.465C35.8203 178.465 36.6133 178.051 37.1289 177.223C37.6523 176.395 37.9258 175.09 37.9492 173.309V169.758Z" fill="black"/>
<circle cx="35.5" cy="327.5" r="35.5" fill="white"/>
<path d="M40.1172 327.723C40.1172 330.262 39.6836 332.148 38.8164 333.383C37.9492 334.617 36.5938 335.234 34.75 335.234C32.9297 335.234 31.582 334.633 30.707 333.43C29.832 332.219 29.3789 330.414 29.3477 328.016V325.121C29.3477 322.613 29.7812 320.75 30.6484 319.531C31.5156 318.312 32.875 317.703 34.7266 317.703C36.5625 317.703 37.9141 318.293 38.7812 319.473C39.6484 320.645 40.0938 322.457 40.1172 324.91V327.723ZM37.9492 324.758C37.9492 322.922 37.6914 321.586 37.1758 320.75C36.6602 319.906 35.8438 319.484 34.7266 319.484C33.6172 319.484 32.8086 319.902 32.3008 320.738C31.793 321.574 31.5312 322.859 31.5156 324.594V328.062C31.5156 329.906 31.7812 331.27 32.3125 332.152C32.8516 333.027 33.6641 333.465 34.75 333.465C35.8203 333.465 36.6133 333.051 37.1289 332.223C37.6523 331.395 37.9258 330.09 37.9492 328.309V324.758Z" fill="black"/>
<circle cx="185.5" cy="180.5" r="35.5" fill="white"/>
<path d="M190.117 180.723C190.117 183.262 189.684 185.148 188.816 186.383C187.949 187.617 186.594 188.234 184.75 188.234C182.93 188.234 181.582 187.633 180.707 186.43C179.832 185.219 179.379 183.414 179.348 181.016V178.121C179.348 175.613 179.781 173.75 180.648 172.531C181.516 171.312 182.875 170.703 184.727 170.703C186.562 170.703 187.914 171.293 188.781 172.473C189.648 173.645 190.094 175.457 190.117 177.91V180.723ZM187.949 177.758C187.949 175.922 187.691 174.586 187.176 173.75C186.66 172.906 185.844 172.484 184.727 172.484C183.617 172.484 182.809 172.902 182.301 173.738C181.793 174.574 181.531 175.859 181.516 177.594V181.062C181.516 182.906 181.781 184.27 182.312 185.152C182.852 186.027 183.664 186.465 184.75 186.465C185.82 186.465 186.613 186.051 187.129 185.223C187.652 184.395 187.926 183.09 187.949 181.309V177.758Z" fill="black"/>
<circle cx="185.5" cy="328.5" r="35.5" fill="white"/>
<path d="M186.543 336H184.363V321.551L179.992 323.156V321.188L186.203 318.855H186.543V336Z" fill="black"/>
<circle cx="35.5" cy="35.5" r="35.5" fill="white"/>
<path d="M40.1172 35.7227C40.1172 38.2617 39.6836 40.1484 38.8164 41.3828C37.9492 42.6172 36.5938 43.2344 34.75 43.2344C32.9297 43.2344 31.582 42.6328 30.707 41.4297C29.832 40.2188 29.3789 38.4141 29.3477 36.0156V33.1211C29.3477 30.6133 29.7812 28.75 30.6484 27.5312C31.5156 26.3125 32.875 25.7031 34.7266 25.7031C36.5625 25.7031 37.9141 26.293 38.7812 27.4727C39.6484 28.6445 40.0938 30.457 40.1172 32.9102V35.7227ZM37.9492 32.7578C37.9492 30.9219 37.6914 29.5859 37.1758 28.75C36.6602 27.9062 35.8438 27.4844 34.7266 27.4844C33.6172 27.4844 32.8086 27.9023 32.3008 28.7383C31.793 29.5742 31.5312 30.8594 31.5156 32.5938V36.0625C31.5156 37.9062 31.7812 39.2695 32.3125 40.1523C32.8516 41.0273 33.6641 41.4648 34.75 41.4648C35.8203 41.4648 36.6133 41.0508 37.1289 40.2227C37.6523 39.3945 37.9258 38.0898 37.9492 36.3086V32.7578Z" fill="black"/>
<path d="M34.6464 292.354C34.8417 292.549 35.1583 292.549 35.3536 292.354L38.5355 289.172C38.7308 288.976 38.7308 288.66 38.5355 288.464C38.3403 288.269 38.0237 288.269 37.8284 288.464L35 291.293L32.1716 288.464C31.9763 288.269 31.6597 288.269 31.4645 288.464C31.2692 288.66 31.2692 288.976 31.4645 289.172L34.6464 292.354ZM34.5 208L34.5 292H35.5L35.5 208H34.5Z" fill="#38BE46"/>
<path d="M29.6582 132.365C29.8598 132.554 30.1762 132.543 30.3649 132.342L33.4409 129.057C33.6297 128.856 33.6193 128.539 33.4178 128.351C33.2162 128.162 32.8998 128.172 32.7111 128.374L29.9768 131.293L27.0572 128.559C26.8557 128.37 26.5393 128.381 26.3505 128.582C26.1617 128.784 26.1721 129.1 26.3737 129.289L29.6582 132.365ZM27.5003 71.0164L29.5003 132.016L30.4997 131.984L28.4997 70.9836L27.5003 71.0164Z" fill="black"/>
<path d="M70.6031 45.696C70.4351 45.9152 70.4767 46.229 70.696 46.3969L74.2684 49.1333C74.4876 49.3012 74.8015 49.2596 74.9694 49.0404C75.1373 48.8212 75.0957 48.5073 74.8765 48.3394L71.701 45.9071L74.1333 42.7316C74.3012 42.5124 74.2596 42.1985 74.0404 42.0306C73.8212 41.8627 73.5073 41.9043 73.3394 42.1235L70.6031 45.696ZM153.934 34.5043L70.9343 45.5043L71.0657 46.4957L154.066 35.4957L153.934 34.5043Z" fill="#688971"/>
<path d="M184.628 145.334C184.812 145.539 185.128 145.557 185.334 145.372L188.683 142.367C188.889 142.182 188.906 141.866 188.721 141.66C188.537 141.455 188.221 141.438 188.015 141.622L185.038 144.294L182.367 141.317C182.182 141.111 181.866 141.094 181.66 141.279C181.455 141.463 181.438 141.779 181.622 141.985L184.628 145.334ZM188.501 70.973L184.501 144.973L185.499 145.027L189.499 71.027L188.501 70.973Z" fill="black"/>
<path d="M63.6304 183.663C63.4444 183.867 63.4591 184.184 63.6633 184.37L66.9896 187.4C67.1938 187.586 67.51 187.572 67.696 187.367C67.882 187.163 67.8673 186.847 67.6631 186.661L64.7063 183.967L67.4003 181.01C67.5863 180.806 67.5716 180.49 67.3675 180.304C67.1633 180.118 66.8471 180.133 66.6611 180.337L63.6304 183.663ZM149.977 179.501L63.9768 183.501L64.0232 184.499L150.023 180.499L149.977 179.501Z" fill="black"/>
<path d="M184.646 292.354C184.842 292.549 185.158 292.549 185.354 292.354L188.536 289.172C188.731 288.976 188.731 288.66 188.536 288.464C188.34 288.269 188.024 288.269 187.828 288.464L185 291.293L182.172 288.464C181.976 288.269 181.66 288.269 181.464 288.464C181.269 288.66 181.269 288.976 181.464 289.172L184.646 292.354ZM184.5 216V292H185.5V216H184.5Z" fill="black"/>
<path d="M70.6464 328.646C70.4512 328.842 70.4512 329.158 70.6464 329.354L73.8284 332.536C74.0237 332.731 74.3403 332.731 74.5355 332.536C74.7308 332.34 74.7308 332.024 74.5355 331.828L71.7071 329L74.5355 326.172C74.7308 325.976 74.7308 325.66 74.5355 325.464C74.3403 325.269 74.0237 325.269 73.8284 325.464L70.6464 328.646ZM150 328.5H71V329.5H150V328.5Z" fill="black"/>
</svg>
