<svg width="627" height="399" viewBox="0 0 627 399" fill="none" xmlns="http://www.w3.org/2000/svg">
<rect width="627" height="399" fill="#E5E5E5"/>
<circle cx="306.5" cy="35.5" r="35.5" fill="white"/>
<path d="M292.809 31.8555C293.77 30.6758 295.02 30.0859 296.559 30.0859C299.238 30.0859 300.59 31.5977 300.613 34.6211V43H298.445V34.6094C298.438 33.6953 298.227 33.0195 297.812 32.582C297.406 32.1445 296.77 31.9258 295.902 31.9258C295.199 31.9258 294.582 32.1133 294.051 32.4883C293.52 32.8633 293.105 33.3555 292.809 33.9648V43H290.641V25H292.809V31.8555ZM303.285 36.543C303.285 35.3008 303.527 34.1836 304.012 33.1914C304.504 32.1992 305.184 31.4336 306.051 30.8945C306.926 30.3555 307.922 30.0859 309.039 30.0859C310.766 30.0859 312.16 30.6836 313.223 31.8789C314.293 33.0742 314.828 34.6641 314.828 36.6484V36.8008C314.828 38.0352 314.59 39.1445 314.113 40.1289C313.645 41.1055 312.969 41.8672 312.086 42.4141C311.211 42.9609 310.203 43.2344 309.062 43.2344C307.344 43.2344 305.949 42.6367 304.879 41.4414C303.816 40.2461 303.285 38.6641 303.285 36.6953V36.543ZM305.465 36.8008C305.465 38.207 305.789 39.3359 306.438 40.1875C307.094 41.0391 307.969 41.4648 309.062 41.4648C310.164 41.4648 311.039 41.0352 311.688 40.1758C312.336 39.3086 312.66 38.0977 312.66 36.543C312.66 35.1523 312.328 34.0273 311.664 33.168C311.008 32.3008 310.133 31.8672 309.039 31.8672C307.969 31.8672 307.105 32.293 306.449 33.1445C305.793 33.9961 305.465 35.2148 305.465 36.8008ZM320.488 27.25V30.3203H322.855V31.9961H320.488V39.8594C320.488 40.3672 320.594 40.75 320.805 41.0078C321.016 41.2578 321.375 41.3828 321.883 41.3828C322.133 41.3828 322.477 41.3359 322.914 41.2422V43C322.344 43.1562 321.789 43.2344 321.25 43.2344C320.281 43.2344 319.551 42.9414 319.059 42.3555C318.566 41.7695 318.32 40.9375 318.32 39.8594V31.9961H316.012V30.3203H318.32V27.25H320.488Z" fill="black"/>
<circle cx="145.5" cy="172.5" r="35.5" fill="white"/>
<path d="M129.113 173.555C129.113 171.609 129.574 170.047 130.496 168.867C131.418 167.68 132.625 167.086 134.117 167.086C135.602 167.086 136.777 167.594 137.645 168.609V162H139.812V180H137.82L137.715 178.641C136.848 179.703 135.641 180.234 134.094 180.234C132.625 180.234 131.426 179.633 130.496 178.43C129.574 177.227 129.113 175.656 129.113 173.719V173.555ZM131.281 173.801C131.281 175.238 131.578 176.363 132.172 177.176C132.766 177.988 133.586 178.395 134.633 178.395C136.008 178.395 137.012 177.777 137.645 176.543V170.719C136.996 169.523 136 168.926 134.656 168.926C133.594 168.926 132.766 169.336 132.172 170.156C131.578 170.977 131.281 172.191 131.281 173.801ZM142.613 173.543C142.613 172.301 142.855 171.184 143.34 170.191C143.832 169.199 144.512 168.434 145.379 167.895C146.254 167.355 147.25 167.086 148.367 167.086C150.094 167.086 151.488 167.684 152.551 168.879C153.621 170.074 154.156 171.664 154.156 173.648V173.801C154.156 175.035 153.918 176.145 153.441 177.129C152.973 178.105 152.297 178.867 151.414 179.414C150.539 179.961 149.531 180.234 148.391 180.234C146.672 180.234 145.277 179.637 144.207 178.441C143.145 177.246 142.613 175.664 142.613 173.695V173.543ZM144.793 173.801C144.793 175.207 145.117 176.336 145.766 177.188C146.422 178.039 147.297 178.465 148.391 178.465C149.492 178.465 150.367 178.035 151.016 177.176C151.664 176.309 151.988 175.098 151.988 173.543C151.988 172.152 151.656 171.027 150.992 170.168C150.336 169.301 149.461 168.867 148.367 168.867C147.297 168.867 146.434 169.293 145.777 170.145C145.121 170.996 144.793 172.215 144.793 173.801ZM159.816 164.25V167.32H162.184V168.996H159.816V176.859C159.816 177.367 159.922 177.75 160.133 178.008C160.344 178.258 160.703 178.383 161.211 178.383C161.461 178.383 161.805 178.336 162.242 178.242V180C161.672 180.156 161.117 180.234 160.578 180.234C159.609 180.234 158.879 179.941 158.387 179.355C157.895 178.77 157.648 177.938 157.648 176.859V168.996H155.34V167.32H157.648V164.25H159.816Z" fill="black"/>
<circle cx="35.5" cy="322.5" r="35.5" fill="white"/>
<path d="M19.1133 323.555C19.1133 321.609 19.5742 320.047 20.4961 318.867C21.418 317.68 22.625 317.086 24.1172 317.086C25.6016 317.086 26.7773 317.594 27.6445 318.609V312H29.8125V330H27.8203L27.7148 328.641C26.8477 329.703 25.6406 330.234 24.0938 330.234C22.625 330.234 21.4258 329.633 20.4961 328.43C19.5742 327.227 19.1133 325.656 19.1133 323.719V323.555ZM21.2812 323.801C21.2812 325.238 21.5781 326.363 22.1719 327.176C22.7656 327.988 23.5859 328.395 24.6328 328.395C26.0078 328.395 27.0117 327.777 27.6445 326.543V320.719C26.9961 319.523 26 318.926 24.6562 318.926C23.5938 318.926 22.7656 319.336 22.1719 320.156C21.5781 320.977 21.2812 322.191 21.2812 323.801ZM32.6133 323.543C32.6133 322.301 32.8555 321.184 33.3398 320.191C33.832 319.199 34.5117 318.434 35.3789 317.895C36.2539 317.355 37.25 317.086 38.3672 317.086C40.0938 317.086 41.4883 317.684 42.5508 318.879C43.6211 320.074 44.1562 321.664 44.1562 323.648V323.801C44.1562 325.035 43.918 326.145 43.4414 327.129C42.9727 328.105 42.2969 328.867 41.4141 329.414C40.5391 329.961 39.5312 330.234 38.3906 330.234C36.6719 330.234 35.2773 329.637 34.207 328.441C33.1445 327.246 32.6133 325.664 32.6133 323.695V323.543ZM34.793 323.801C34.793 325.207 35.1172 326.336 35.7656 327.188C36.4219 328.039 37.2969 328.465 38.3906 328.465C39.4922 328.465 40.3672 328.035 41.0156 327.176C41.6641 326.309 41.9883 325.098 41.9883 323.543C41.9883 322.152 41.6562 321.027 40.9922 320.168C40.3359 319.301 39.4609 318.867 38.3672 318.867C37.2969 318.867 36.4336 319.293 35.7773 320.145C35.1211 320.996 34.793 322.215 34.793 323.801ZM46.3594 323.555C46.3594 321.578 46.8164 320.008 47.7305 318.844C48.6445 317.672 49.8555 317.086 51.3633 317.086C52.9102 317.086 54.1172 317.633 54.9844 318.727L55.0898 317.32H57.0703V329.695C57.0703 331.336 56.582 332.629 55.6055 333.574C54.6367 334.52 53.332 334.992 51.6914 334.992C50.7773 334.992 49.8828 334.797 49.0078 334.406C48.1328 334.016 47.4648 333.48 47.0039 332.801L48.1289 331.5C49.0586 332.648 50.1953 333.223 51.5391 333.223C52.5938 333.223 53.4141 332.926 54 332.332C54.5938 331.738 54.8906 330.902 54.8906 329.824V328.734C54.0234 329.734 52.8398 330.234 51.3398 330.234C49.8555 330.234 48.6523 329.637 47.7305 328.441C46.8164 327.246 46.3594 325.617 46.3594 323.555ZM48.5391 323.801C48.5391 325.23 48.832 326.355 49.418 327.176C50.0039 327.988 50.8242 328.395 51.8789 328.395C53.2461 328.395 54.25 327.773 54.8906 326.531V320.742C54.2266 319.531 53.2305 318.926 51.9023 318.926C50.8477 318.926 50.0234 319.336 49.4297 320.156C48.8359 320.977 48.5391 322.191 48.5391 323.801Z" fill="black"/>
<circle cx="302.5" cy="180.5" r="35.5" fill="white"/>
<path d="M288.809 176.855C289.77 175.676 291.02 175.086 292.559 175.086C295.238 175.086 296.59 176.598 296.613 179.621V188H294.445V179.609C294.438 178.695 294.227 178.02 293.812 177.582C293.406 177.145 292.77 176.926 291.902 176.926C291.199 176.926 290.582 177.113 290.051 177.488C289.52 177.863 289.105 178.355 288.809 178.965V188H286.641V170H288.809V176.855ZM307.688 188C307.562 187.75 307.461 187.305 307.383 186.664C306.375 187.711 305.172 188.234 303.773 188.234C302.523 188.234 301.496 187.883 300.691 187.18C299.895 186.469 299.496 185.57 299.496 184.484C299.496 183.164 299.996 182.141 300.996 181.414C302.004 180.68 303.418 180.312 305.238 180.312H307.348V179.316C307.348 178.559 307.121 177.957 306.668 177.512C306.215 177.059 305.547 176.832 304.664 176.832C303.891 176.832 303.242 177.027 302.719 177.418C302.195 177.809 301.934 178.281 301.934 178.836H299.754C299.754 178.203 299.977 177.594 300.422 177.008C300.875 176.414 301.484 175.945 302.25 175.602C303.023 175.258 303.871 175.086 304.793 175.086C306.254 175.086 307.398 175.453 308.227 176.188C309.055 176.914 309.484 177.918 309.516 179.199V185.035C309.516 186.199 309.664 187.125 309.961 187.812V188H307.688ZM304.09 186.348C304.77 186.348 305.414 186.172 306.023 185.82C306.633 185.469 307.074 185.012 307.348 184.449V181.848H305.648C302.992 181.848 301.664 182.625 301.664 184.18C301.664 184.859 301.891 185.391 302.344 185.773C302.797 186.156 303.379 186.348 304.09 186.348ZM315.855 172.25V175.32H318.223V176.996H315.855V184.859C315.855 185.367 315.961 185.75 316.172 186.008C316.383 186.258 316.742 186.383 317.25 186.383C317.5 186.383 317.844 186.336 318.281 186.242V188C317.711 188.156 317.156 188.234 316.617 188.234C315.648 188.234 314.918 187.941 314.426 187.355C313.934 186.77 313.688 185.938 313.688 184.859V176.996H311.379V175.32H313.688V172.25H315.855Z" fill="black"/>
<circle cx="282.5" cy="363.5" r="35.5" fill="white"/>
<path d="M268.809 359.855C269.77 358.676 271.02 358.086 272.559 358.086C275.238 358.086 276.59 359.598 276.613 362.621V371H274.445V362.609C274.438 361.695 274.227 361.02 273.812 360.582C273.406 360.145 272.77 359.926 271.902 359.926C271.199 359.926 270.582 360.113 270.051 360.488C269.52 360.863 269.105 361.355 268.809 361.965V371H266.641V353H268.809V359.855ZM287.688 371C287.562 370.75 287.461 370.305 287.383 369.664C286.375 370.711 285.172 371.234 283.773 371.234C282.523 371.234 281.496 370.883 280.691 370.18C279.895 369.469 279.496 368.57 279.496 367.484C279.496 366.164 279.996 365.141 280.996 364.414C282.004 363.68 283.418 363.312 285.238 363.312H287.348V362.316C287.348 361.559 287.121 360.957 286.668 360.512C286.215 360.059 285.547 359.832 284.664 359.832C283.891 359.832 283.242 360.027 282.719 360.418C282.195 360.809 281.934 361.281 281.934 361.836H279.754C279.754 361.203 279.977 360.594 280.422 360.008C280.875 359.414 281.484 358.945 282.25 358.602C283.023 358.258 283.871 358.086 284.793 358.086C286.254 358.086 287.398 358.453 288.227 359.188C289.055 359.914 289.484 360.918 289.516 362.199V368.035C289.516 369.199 289.664 370.125 289.961 370.812V371H287.688ZM284.09 369.348C284.77 369.348 285.414 369.172 286.023 368.82C286.633 368.469 287.074 368.012 287.348 367.449V364.848H285.648C282.992 364.848 281.664 365.625 281.664 367.18C281.664 367.859 281.891 368.391 282.344 368.773C282.797 369.156 283.379 369.348 284.09 369.348ZM294.953 358.32L295.012 359.727C295.941 358.633 297.195 358.086 298.773 358.086C300.547 358.086 301.754 358.766 302.395 360.125C302.816 359.516 303.363 359.023 304.035 358.648C304.715 358.273 305.516 358.086 306.438 358.086C309.219 358.086 310.633 359.559 310.68 362.504V371H308.512V362.633C308.512 361.727 308.305 361.051 307.891 360.605C307.477 360.152 306.781 359.926 305.805 359.926C305 359.926 304.332 360.168 303.801 360.652C303.27 361.129 302.961 361.773 302.875 362.586V371H300.695V362.691C300.695 360.848 299.793 359.926 297.988 359.926C296.566 359.926 295.594 360.531 295.07 361.742V371H292.902V358.32H294.953Z" fill="black"/>
<circle cx="466.5" cy="180.5" r="35.5" fill="white"/>
<path d="M452.809 176.855C453.77 175.676 455.02 175.086 456.559 175.086C459.238 175.086 460.59 176.598 460.613 179.621V188H458.445V179.609C458.438 178.695 458.227 178.02 457.812 177.582C457.406 177.145 456.77 176.926 455.902 176.926C455.199 176.926 454.582 177.113 454.051 177.488C453.52 177.863 453.105 178.355 452.809 178.965V188H450.641V170H452.809V176.855ZM463.285 181.543C463.285 180.301 463.527 179.184 464.012 178.191C464.504 177.199 465.184 176.434 466.051 175.895C466.926 175.355 467.922 175.086 469.039 175.086C470.766 175.086 472.16 175.684 473.223 176.879C474.293 178.074 474.828 179.664 474.828 181.648V181.801C474.828 183.035 474.59 184.145 474.113 185.129C473.645 186.105 472.969 186.867 472.086 187.414C471.211 187.961 470.203 188.234 469.062 188.234C467.344 188.234 465.949 187.637 464.879 186.441C463.816 185.246 463.285 183.664 463.285 181.695V181.543ZM465.465 181.801C465.465 183.207 465.789 184.336 466.438 185.188C467.094 186.039 467.969 186.465 469.062 186.465C470.164 186.465 471.039 186.035 471.688 185.176C472.336 184.309 472.66 183.098 472.66 181.543C472.66 180.152 472.328 179.027 471.664 178.168C471.008 177.301 470.133 176.867 469.039 176.867C467.969 176.867 467.105 177.293 466.449 178.145C465.793 178.996 465.465 180.215 465.465 181.801ZM488.773 185.012L491.211 175.32H493.379L489.688 188H487.93L484.848 178.391L481.848 188H480.09L476.41 175.32H478.566L481.062 184.812L484.016 175.32H485.762L488.773 185.012Z" fill="black"/>
<circle cx="591.5" cy="350.5" r="35.5" fill="white"/>
<path d="M586.867 355.012L589.305 345.32H591.473L587.781 358H586.023L582.941 348.391L579.941 358H578.184L574.504 345.32H576.66L579.156 354.812L582.109 345.32H583.855L586.867 355.012ZM593.113 351.543C593.113 350.301 593.355 349.184 593.84 348.191C594.332 347.199 595.012 346.434 595.879 345.895C596.754 345.355 597.75 345.086 598.867 345.086C600.594 345.086 601.988 345.684 603.051 346.879C604.121 348.074 604.656 349.664 604.656 351.648V351.801C604.656 353.035 604.418 354.145 603.941 355.129C603.473 356.105 602.797 356.867 601.914 357.414C601.039 357.961 600.031 358.234 598.891 358.234C597.172 358.234 595.777 357.637 594.707 356.441C593.645 355.246 593.113 353.664 593.113 351.695V351.543ZM595.293 351.801C595.293 353.207 595.617 354.336 596.266 355.188C596.922 356.039 597.797 356.465 598.891 356.465C599.992 356.465 600.867 356.035 601.516 355.176C602.164 354.309 602.488 353.098 602.488 351.543C602.488 350.152 602.156 349.027 601.492 348.168C600.836 347.301 599.961 346.867 598.867 346.867C597.797 346.867 596.934 347.293 596.277 348.145C595.621 348.996 595.293 350.215 595.293 351.801ZM618.602 355.012L621.039 345.32H623.207L619.516 358H617.758L614.676 348.391L611.676 358H609.918L606.238 345.32H608.395L610.891 354.812L613.844 345.32H615.59L618.602 355.012Z" fill="black"/>
<path d="M45.5007 292.027C45.5154 292.302 45.7508 292.514 46.0266 292.499L50.5202 292.26C50.796 292.245 51.0076 292.01 50.9929 291.734C50.9782 291.458 50.7428 291.247 50.467 291.261L46.4727 291.474L46.26 287.48C46.2453 287.204 46.0099 286.992 45.7341 287.007C45.4584 287.022 45.2467 287.257 45.2614 287.533L45.5007 292.027ZM125.628 202.666L45.6281 291.666L46.3719 292.334L126.372 203.334L125.628 202.666Z" fill="#38BE46"/>
<path d="M446.05 154.497C446.325 154.47 446.525 154.225 446.497 153.95L446.048 149.473C446.02 149.198 445.775 148.997 445.5 149.025C445.225 149.053 445.025 149.298 445.053 149.573L445.453 153.552L441.473 153.952C441.198 153.98 440.997 154.225 441.025 154.5C441.053 154.775 441.298 154.975 441.573 154.947L446.05 154.497ZM330.684 60.3871L445.684 154.387L446.316 153.613L331.316 59.6129L330.684 60.3871Z" fill="black"/>
<path d="M169.503 144.943C169.472 145.217 169.669 145.465 169.943 145.497L174.414 146.009C174.688 146.04 174.936 145.844 174.967 145.569C174.999 145.295 174.802 145.047 174.528 145.016L170.554 144.56L171.009 140.586C171.04 140.312 170.844 140.064 170.569 140.033C170.295 140.001 170.047 140.198 170.016 140.472L169.503 144.943ZM276.689 59.6085L169.689 144.608L170.311 145.392L277.311 60.3915L276.689 59.6085Z" fill="#688971"/>
<path d="M301.628 145.334C301.812 145.539 302.128 145.557 302.334 145.372L305.683 142.367C305.889 142.182 305.906 141.866 305.721 141.66C305.537 141.455 305.221 141.438 305.015 141.622L302.038 144.294L299.367 141.317C299.182 141.111 298.866 141.094 298.66 141.279C298.455 141.463 298.438 141.779 298.622 141.985L301.628 145.334ZM305.501 70.973L301.501 144.973L302.499 145.027L306.499 71.027L305.501 70.973Z" fill="black"/>
<path d="M281.59 328.286C281.748 328.512 282.059 328.568 282.286 328.41L285.978 325.837C286.204 325.679 286.26 325.368 286.102 325.141C285.944 324.914 285.632 324.859 285.406 325.017L282.124 327.304L279.837 324.022C279.679 323.796 279.368 323.74 279.141 323.898C278.914 324.056 278.859 324.368 279.017 324.594L281.59 328.286ZM301.508 215.912L281.508 327.912L282.492 328.088L302.492 216.088L301.508 215.912Z" fill="black"/>
<path d="M569.92 323.494C570.193 323.538 570.45 323.352 570.494 323.08L571.212 318.637C571.256 318.365 571.07 318.108 570.798 318.064C570.525 318.02 570.268 318.205 570.224 318.478L569.586 322.427L565.637 321.788C565.365 321.744 565.108 321.93 565.064 322.202C565.02 322.475 565.205 322.732 565.478 322.776L569.92 323.494ZM486.595 208.293L569.595 323.293L570.405 322.707L487.405 207.707L486.595 208.293Z" fill="black"/>
</svg>
